<mxfile host="app.diagrams.net" modified="2024-05-30T22:42:21.145Z" agent="Mozilla/5.0 (X11; Linux x86_64) AppleWebKit/537.36 (KHTML, like Gecko) Chrome/125.0.0.0 Safari/537.36" etag="VuzAuvYczXG3pc_s22fY" version="24.4.9" type="device">
  <diagram name="Page-1" id="T5I-39zUhY-CpWxyedti">
    <mxGraphModel dx="810" dy="447" grid="1" gridSize="10" guides="1" tooltips="1" connect="1" arrows="1" fold="1" page="1" pageScale="1" pageWidth="850" pageHeight="1100" math="0" shadow="0">
      <root>
        <mxCell id="0" />
        <mxCell id="1" parent="0" />
        <mxCell id="h5vDOmOoOmSrKCh5Haf8-1" value="" style="rounded=0;whiteSpace=wrap;html=1;" parent="1" vertex="1">
          <mxGeometry x="230" y="200" width="540" height="390" as="geometry" />
        </mxCell>
        <mxCell id="h5vDOmOoOmSrKCh5Haf8-2" value="Customer" style="shape=umlActor;verticalLabelPosition=bottom;verticalAlign=top;html=1;outlineConnect=0;" parent="1" vertex="1">
          <mxGeometry x="110" y="320" width="30" height="60" as="geometry" />
        </mxCell>
        <mxCell id="h5vDOmOoOmSrKCh5Haf8-3" value="Close Rent" style="ellipse;whiteSpace=wrap;html=1;aspect=fixed;" parent="1" vertex="1">
          <mxGeometry x="250" y="390" width="80" height="80" as="geometry" />
        </mxCell>
        <mxCell id="h5vDOmOoOmSrKCh5Haf8-4" value="" style="endArrow=none;html=1;rounded=0;" parent="1" source="h5vDOmOoOmSrKCh5Haf8-2" target="h5vDOmOoOmSrKCh5Haf8-3" edge="1">
          <mxGeometry width="50" height="50" relative="1" as="geometry">
            <mxPoint x="180" y="380" as="sourcePoint" />
            <mxPoint x="230" y="340" as="targetPoint" />
          </mxGeometry>
        </mxCell>
        <mxCell id="h5vDOmOoOmSrKCh5Haf8-5" value="&lt;span style=&quot;font-size: 14px;&quot;&gt;&lt;b&gt;Close and Invoice Rent - Admin&lt;/b&gt;&lt;/span&gt;" style="text;strokeColor=none;align=center;fillColor=none;html=1;verticalAlign=middle;whiteSpace=wrap;rounded=0;" parent="1" vertex="1">
          <mxGeometry x="330" y="160" width="280" height="30" as="geometry" />
        </mxCell>
        <mxCell id="h5vDOmOoOmSrKCh5Haf8-6" value="Fill Invoice Data" style="ellipse;whiteSpace=wrap;html=1;aspect=fixed;" parent="1" vertex="1">
          <mxGeometry x="430" y="230" width="80" height="80" as="geometry" />
        </mxCell>
        <mxCell id="h5vDOmOoOmSrKCh5Haf8-7" value="" style="endArrow=none;html=1;rounded=0;entryX=0.025;entryY=0.65;entryDx=0;entryDy=0;entryPerimeter=0;dashed=1;endFill=0;startArrow=open;startFill=0;" parent="1" source="h5vDOmOoOmSrKCh5Haf8-3" target="h5vDOmOoOmSrKCh5Haf8-6" edge="1">
          <mxGeometry width="50" height="50" relative="1" as="geometry">
            <mxPoint x="190" y="420" as="sourcePoint" />
            <mxPoint x="341" y="379" as="targetPoint" />
          </mxGeometry>
        </mxCell>
        <mxCell id="h5vDOmOoOmSrKCh5Haf8-8" value="Close Rent" style="ellipse;whiteSpace=wrap;html=1;aspect=fixed;direction=south;" parent="1" vertex="1">
          <mxGeometry x="430" y="350" width="80" height="80" as="geometry" />
        </mxCell>
        <mxCell id="h5vDOmOoOmSrKCh5Haf8-9" value="" style="endArrow=none;html=1;rounded=0;entryX=0.025;entryY=0.65;entryDx=0;entryDy=0;entryPerimeter=0;dashed=1;startArrow=open;startFill=0;exitX=1.025;exitY=0.613;exitDx=0;exitDy=0;exitPerimeter=0;" parent="1" source="h5vDOmOoOmSrKCh5Haf8-3" edge="1">
          <mxGeometry width="50" height="50" relative="1" as="geometry">
            <mxPoint x="350" y="360" as="sourcePoint" />
            <mxPoint x="430" y="383" as="targetPoint" />
          </mxGeometry>
        </mxCell>
        <mxCell id="h5vDOmOoOmSrKCh5Haf8-10" value="Generate Invoice" style="ellipse;whiteSpace=wrap;html=1;aspect=fixed;" parent="1" vertex="1">
          <mxGeometry x="438" y="460" width="80" height="80" as="geometry" />
        </mxCell>
        <mxCell id="h5vDOmOoOmSrKCh5Haf8-11" value="" style="endArrow=none;html=1;rounded=0;entryX=0.025;entryY=0.65;entryDx=0;entryDy=0;entryPerimeter=0;dashed=1;startArrow=open;startFill=0;" parent="1" source="h5vDOmOoOmSrKCh5Haf8-3" edge="1">
          <mxGeometry width="50" height="50" relative="1" as="geometry">
            <mxPoint x="360" y="469" as="sourcePoint" />
            <mxPoint x="438" y="493" as="targetPoint" />
          </mxGeometry>
        </mxCell>
        <mxCell id="h5vDOmOoOmSrKCh5Haf8-12" value="&amp;lt;includes&amp;gt;" style="text;strokeColor=none;align=center;fillColor=none;html=1;verticalAlign=middle;whiteSpace=wrap;rounded=0;rotation=-45;" parent="1" vertex="1">
          <mxGeometry x="330" y="315" width="60" height="30" as="geometry" />
        </mxCell>
        <mxCell id="h5vDOmOoOmSrKCh5Haf8-13" value="&amp;lt;includes&amp;gt;" style="text;strokeColor=none;align=center;fillColor=none;html=1;verticalAlign=middle;whiteSpace=wrap;rounded=0;rotation=-30;" parent="1" vertex="1">
          <mxGeometry x="350" y="380" width="60" height="30" as="geometry" />
        </mxCell>
        <mxCell id="h5vDOmOoOmSrKCh5Haf8-14" value="&amp;lt;includes&amp;gt;" style="text;strokeColor=none;align=center;fillColor=none;html=1;verticalAlign=middle;whiteSpace=wrap;rounded=0;rotation=25;" parent="1" vertex="1">
          <mxGeometry x="370" y="450" width="60" height="30" as="geometry" />
        </mxCell>
        <mxCell id="h5vDOmOoOmSrKCh5Haf8-21" value="Release Vehicle" style="ellipse;whiteSpace=wrap;html=1;aspect=fixed;direction=south;" parent="1" vertex="1">
          <mxGeometry x="620" y="250" width="80" height="80" as="geometry" />
        </mxCell>
        <mxCell id="h5vDOmOoOmSrKCh5Haf8-22" value="Upate Vehicle&amp;nbsp; Data" style="ellipse;whiteSpace=wrap;html=1;aspect=fixed;direction=south;" parent="1" vertex="1">
          <mxGeometry x="620" y="370" width="80" height="80" as="geometry" />
        </mxCell>
        <mxCell id="h5vDOmOoOmSrKCh5Haf8-23" value="Update Rent" style="ellipse;whiteSpace=wrap;html=1;aspect=fixed;direction=south;" parent="1" vertex="1">
          <mxGeometry x="620" y="485" width="80" height="80" as="geometry" />
        </mxCell>
        <mxCell id="h5vDOmOoOmSrKCh5Haf8-24" value="" style="endArrow=none;html=1;rounded=0;entryX=0.663;entryY=0.963;entryDx=0;entryDy=0;entryPerimeter=0;dashed=1;endFill=0;startArrow=open;startFill=0;exitX=0;exitY=0;exitDx=0;exitDy=0;" parent="1" source="h5vDOmOoOmSrKCh5Haf8-8" target="h5vDOmOoOmSrKCh5Haf8-21" edge="1">
          <mxGeometry width="50" height="50" relative="1" as="geometry">
            <mxPoint x="510" y="410" as="sourcePoint" />
            <mxPoint x="624" y="291" as="targetPoint" />
          </mxGeometry>
        </mxCell>
        <mxCell id="h5vDOmOoOmSrKCh5Haf8-25" value="&amp;lt;includes&amp;gt;" style="text;strokeColor=none;align=center;fillColor=none;html=1;verticalAlign=middle;whiteSpace=wrap;rounded=0;rotation=-25;" parent="1" vertex="1">
          <mxGeometry x="518" y="310" width="60" height="30" as="geometry" />
        </mxCell>
        <mxCell id="h5vDOmOoOmSrKCh5Haf8-26" value="" style="endArrow=none;html=1;rounded=0;entryX=0.6;entryY=0.963;entryDx=0;entryDy=0;entryPerimeter=0;dashed=1;endFill=0;startArrow=open;startFill=0;exitX=0.6;exitY=0;exitDx=0;exitDy=0;exitPerimeter=0;" parent="1" source="h5vDOmOoOmSrKCh5Haf8-8" target="h5vDOmOoOmSrKCh5Haf8-22" edge="1">
          <mxGeometry width="50" height="50" relative="1" as="geometry">
            <mxPoint x="495" y="460" as="sourcePoint" />
            <mxPoint x="620" y="401" as="targetPoint" />
          </mxGeometry>
        </mxCell>
        <mxCell id="h5vDOmOoOmSrKCh5Haf8-27" value="&amp;lt;includes&amp;gt;" style="text;strokeColor=none;align=center;fillColor=none;html=1;verticalAlign=middle;whiteSpace=wrap;rounded=0;rotation=10;" parent="1" vertex="1">
          <mxGeometry x="550" y="380" width="60" height="30" as="geometry" />
        </mxCell>
        <mxCell id="h5vDOmOoOmSrKCh5Haf8-28" value="" style="endArrow=none;html=1;rounded=0;dashed=1;endFill=0;startArrow=open;startFill=0;exitX=0.775;exitY=0.075;exitDx=0;exitDy=0;exitPerimeter=0;" parent="1" source="h5vDOmOoOmSrKCh5Haf8-8" target="h5vDOmOoOmSrKCh5Haf8-23" edge="1">
          <mxGeometry width="50" height="50" relative="1" as="geometry">
            <mxPoint x="507" y="440" as="sourcePoint" />
            <mxPoint x="620" y="460" as="targetPoint" />
          </mxGeometry>
        </mxCell>
        <mxCell id="h5vDOmOoOmSrKCh5Haf8-29" value="&amp;lt;includes&amp;gt;" style="text;strokeColor=none;align=center;fillColor=none;html=1;verticalAlign=middle;whiteSpace=wrap;rounded=0;rotation=30;" parent="1" vertex="1">
          <mxGeometry x="550" y="440" width="60" height="30" as="geometry" />
        </mxCell>
      </root>
    </mxGraphModel>
  </diagram>
</mxfile>
